<svg xmlns="http://www.w3.org/2000/svg" xmlns:xlink="http://www.w3.org/1999/xlink" zoomAndPan="magnify" preserveAspectRatio="xMidYMid meet" version="1.0" viewBox="42.89 165.97 294.09 51.21" fill="currentColor" role="image" aria-labelledby="empathetechLogo">
<title id="empathetechLogo">"Empathetech."</title>
<defs><g/><clipPath id="332d5c1502"><path d="M 210.949219 178.621094 L 230.449219 178.621094 L 230.449219 207.121094 L 210.949219 207.121094 Z M 210.949219 178.621094 " clip-rule="nonzero"/></clipPath><clipPath id="22df47dc05"><path d="M 317.488281 178.386719 L 336.988281 178.386719 L 336.988281 206.886719 L 317.488281 206.886719 Z M 317.488281 178.386719 " clip-rule="nonzero"/></clipPath></defs><g clip-path="url(#332d5c1502)"><path fill="#000000" d="M 259.285156 191.953125 C 259.519531 192.191406 259.664062 192.511719 259.664062 192.871094 C 259.664062 193.230469 259.519531 193.554688 259.285156 193.789062 L 246.480469 206.742188 C 246.246094 206.976562 245.925781 207.125 245.570312 207.125 C 244.863281 207.125 244.289062 206.542969 244.289062 205.828125 C 244.289062 205.46875 244.433594 205.144531 244.664062 204.910156 L 256.570312 192.871094 L 244.664062 180.835938 C 244.433594 180.601562 244.289062 180.273438 244.289062 179.917969 C 244.289062 179.203125 244.863281 178.621094 245.570312 178.621094 C 245.925781 178.621094 246.246094 178.765625 246.480469 179 Z M 225.078125 207.121094 C 225.082031 207.121094 225.082031 207.121094 225.082031 207.121094 C 225.789062 207.121094 226.363281 206.542969 226.363281 205.828125 C 226.363281 205.46875 226.21875 205.144531 225.984375 204.910156 L 214.082031 192.871094 L 225.984375 180.835938 C 226.21875 180.601562 226.359375 180.273438 226.359375 179.917969 C 226.359375 179.203125 225.789062 178.621094 225.078125 178.621094 C 224.726562 178.621094 224.402344 178.765625 224.171875 179 L 211.363281 191.953125 C 211.132812 192.191406 210.988281 192.511719 210.988281 192.871094 C 210.988281 193.230469 211.132812 193.554688 211.363281 193.789062 L 224.171875 206.742188 C 224.402344 206.976562 224.722656 207.121094 225.078125 207.121094 Z M 225.078125 207.121094 " fill-opacity="1" fill-rule="nonzero"/></g><g fill="#000000" fill-opacity="1"><g transform="translate(40.589028, 204.374987)"><g><path d="M 25.859375 -11.777344 C 25.859375 -14.851562 24.632812 -17.515625 22.277344 -19.816406 C 19.972656 -22.019531 17.207031 -23.148438 14.082031 -23.148438 C 10.804688 -23.148438 8.039062 -21.96875 5.734375 -19.664062 C 3.429688 -17.359375 2.304688 -14.59375 2.304688 -11.367188 C 2.304688 -8.089844 3.429688 -5.324219 5.734375 -3.074219 C 6.8125 -1.996094 8.039062 -1.179688 9.472656 -0.5625 C 10.90625 0.0507812 12.597656 0.359375 14.59375 0.359375 C 16.59375 0.359375 18.539062 -0.257812 20.484375 -1.484375 C 22.429688 -2.714844 23.863281 -4.457031 24.835938 -6.605469 L 20.738281 -6.605469 C 19.921875 -5.53125 18.949219 -4.710938 17.769531 -4.097656 C 16.59375 -3.480469 15.363281 -3.226562 14.082031 -3.226562 C 12.136719 -3.226562 10.394531 -3.839844 8.859375 -5.121094 C 7.324219 -6.351562 6.351562 -7.9375 6.042969 -9.882812 L 25.859375 -9.882812 Z M 22.070312 -12.957031 L 6.09375 -12.957031 C 6.300781 -13.878906 6.65625 -14.75 7.167969 -15.566406 C 8.808594 -18.230469 11.113281 -19.5625 14.082031 -19.5625 C 15.976562 -19.5625 17.667969 -18.949219 19.152344 -17.71875 C 20.6875 -16.4375 21.609375 -14.851562 22.070312 -12.957031 Z M 22.070312 -12.957031 "/></g></g></g><g fill="#000000" fill-opacity="1"><g transform="translate(63.678483, 204.374987)"><g><path d="M 32.414062 -0.101562 L 36 -0.101562 L 36 -14.183594 C 36 -16.695312 35.335938 -18.792969 34.105469 -20.433594 C 33.492188 -21.253906 32.671875 -21.867188 31.75 -22.378906 C 30.777344 -22.890625 29.496094 -23.148438 27.960938 -23.148438 C 26.375 -23.148438 24.992188 -22.6875 23.8125 -21.867188 C 22.738281 -21.046875 21.867188 -20.074219 21.148438 -18.84375 C 20.894531 -19.410156 20.585938 -19.921875 20.226562 -20.433594 C 19.613281 -21.253906 18.792969 -21.867188 17.871094 -22.378906 C 16.898438 -22.890625 15.617188 -23.148438 14.082031 -23.148438 C 12.496094 -23.148438 11.113281 -22.6875 9.933594 -21.867188 C 8.910156 -21.097656 8.089844 -20.175781 7.425781 -19 L 7.425781 -22.636719 L 3.839844 -22.636719 L 3.839844 -0.101562 L 7.425781 -0.101562 L 7.425781 -11.625 C 7.578125 -13.417969 8.039062 -15.003906 8.808594 -16.285156 C 9.320312 -17.207031 10.089844 -18.027344 11.011719 -18.640625 C 11.933594 -19.253906 12.90625 -19.5625 13.980469 -19.5625 C 15.003906 -19.5625 15.824219 -19.355469 16.335938 -19.050781 C 17.769531 -18.128906 18.539062 -16.488281 18.539062 -14.183594 L 18.539062 -0.101562 L 22.121094 -0.101562 L 22.121094 -14.183594 C 22.121094 -14.441406 22.070312 -14.75 22.070312 -15.003906 C 22.226562 -15.464844 22.429688 -15.875 22.6875 -16.285156 C 23.199219 -17.207031 23.964844 -18.027344 24.886719 -18.640625 C 25.808594 -19.253906 26.78125 -19.5625 27.859375 -19.5625 C 28.882812 -19.5625 29.703125 -19.355469 30.214844 -19.050781 C 31.648438 -18.128906 32.414062 -16.488281 32.414062 -14.183594 Z M 32.414062 -0.101562 "/></g></g></g><g fill="#000000" fill-opacity="1"><g transform="translate(97.929383, 204.374987)"><g><path d="M 7.425781 12.800781 L 7.425781 -3.839844 C 7.578125 -3.535156 7.835938 -3.277344 8.039062 -3.074219 C 10.191406 -0.664062 12.800781 0.511719 15.925781 0.511719 C 19 0.511719 21.609375 -0.664062 23.761719 -3.074219 C 25.808594 -5.378906 26.886719 -8.089844 26.886719 -11.265625 C 26.886719 -14.390625 25.808594 -17.105469 23.761719 -19.460938 C 21.609375 -21.816406 19 -23.042969 15.925781 -23.042969 C 12.800781 -23.042969 10.191406 -21.816406 8.039062 -19.460938 C 7.835938 -19.203125 7.578125 -18.949219 7.425781 -18.640625 L 7.425781 -22.53125 L 3.839844 -22.53125 L 3.839844 12.800781 Z M 23.300781 -11.265625 C 23.300781 -9.0625 22.53125 -7.117188 20.996094 -5.53125 C 19.460938 -3.890625 17.566406 -3.074219 15.363281 -3.074219 C 13.109375 -3.074219 11.214844 -3.890625 9.679688 -5.53125 C 8.140625 -7.117188 7.425781 -9.0625 7.425781 -11.265625 C 7.425781 -13.417969 8.140625 -15.363281 9.679688 -17 C 11.214844 -18.640625 13.109375 -19.460938 15.363281 -19.460938 C 17.566406 -19.460938 19.460938 -18.640625 20.996094 -17 C 22.53125 -15.363281 23.300781 -13.417969 23.300781 -11.265625 Z M 23.300781 -11.265625 "/></g></g></g><g fill="#000000" fill-opacity="1"><g transform="translate(122.298825, 204.374987)"><g><path d="M 21.765625 -11.265625 C 21.765625 -9.0625 20.996094 -7.117188 19.460938 -5.53125 C 17.921875 -3.890625 16.027344 -3.074219 13.828125 -3.074219 C 11.574219 -3.074219 9.679688 -3.890625 8.140625 -5.53125 C 6.605469 -7.117188 5.890625 -9.0625 5.890625 -11.265625 C 5.890625 -13.417969 6.605469 -15.363281 8.140625 -17 C 9.679688 -18.640625 11.574219 -19.460938 13.828125 -19.460938 C 16.027344 -19.460938 17.921875 -18.640625 19.460938 -17 C 20.996094 -15.363281 21.765625 -13.417969 21.765625 -11.265625 Z M 25.347656 0 L 25.347656 -22.53125 L 21.765625 -22.53125 L 21.765625 -18.640625 C 21.558594 -18.949219 21.304688 -19.203125 21.097656 -19.460938 C 18.949219 -21.816406 16.335938 -23.042969 13.261719 -23.042969 C 10.140625 -23.042969 7.527344 -21.816406 5.378906 -19.460938 C 3.328125 -17.105469 2.304688 -14.390625 2.304688 -11.265625 C 2.304688 -8.089844 3.328125 -5.378906 5.378906 -3.074219 C 7.527344 -0.664062 10.140625 0.511719 13.261719 0.511719 C 16.335938 0.511719 18.949219 -0.664062 21.097656 -3.074219 C 21.304688 -3.277344 21.558594 -3.535156 21.765625 -3.839844 L 21.765625 0 Z M 25.347656 0 "/></g></g></g><g fill="#000000" fill-opacity="1"><g transform="translate(146.668268, 204.374987)"><g><path d="M 1.023438 -19.203125 L 6.65625 -19.203125 L 6.65625 0 L 10.242188 0 L 10.242188 -19.203125 L 15.824219 -19.203125 L 15.824219 -22.53125 L 10.242188 -22.53125 L 10.242188 -31.289062 L 6.65625 -31.289062 L 6.65625 -22.53125 L 1.023438 -22.53125 Z M 1.023438 -19.203125 "/></g></g></g><g fill="#000000" fill-opacity="1"><g transform="translate(158.698685, 204.374987)"><g><path d="M 7.425781 0 L 7.425781 -9.421875 C 7.425781 -12.546875 7.9375 -14.902344 9.011719 -16.539062 C 9.628906 -17.460938 10.394531 -18.128906 11.367188 -18.640625 C 12.289062 -19.152344 13.570312 -19.410156 15.105469 -19.410156 C 16.644531 -19.410156 17.71875 -18.84375 18.382812 -17.820312 C 19.050781 -16.796875 19.410156 -15.515625 19.410156 -14.082031 L 19.410156 0 L 22.992188 0 L 22.992188 -14.082031 C 22.992188 -16.695312 22.277344 -18.792969 20.945312 -20.382812 C 20.226562 -21.199219 19.410156 -21.816406 18.4375 -22.277344 C 17.410156 -22.738281 16.132812 -22.992188 14.542969 -22.992188 C 12.90625 -22.992188 11.523438 -22.53125 10.292969 -21.714844 C 9.117188 -20.945312 8.140625 -19.921875 7.425781 -18.640625 L 7.425781 -38.40625 L 3.839844 -38.40625 L 3.839844 0 Z M 7.425781 0 "/></g></g></g><g fill="#000000" fill-opacity="1"><g transform="translate(179.944961, 204.374987)"><g><path d="M 25.859375 -11.777344 C 25.859375 -14.851562 24.632812 -17.515625 22.277344 -19.816406 C 19.972656 -22.019531 17.207031 -23.148438 14.082031 -23.148438 C 10.804688 -23.148438 8.039062 -21.96875 5.734375 -19.664062 C 3.429688 -17.359375 2.304688 -14.59375 2.304688 -11.367188 C 2.304688 -8.089844 3.429688 -5.324219 5.734375 -3.074219 C 6.8125 -1.996094 8.039062 -1.179688 9.472656 -0.5625 C 10.90625 0.0507812 12.597656 0.359375 14.59375 0.359375 C 16.59375 0.359375 18.539062 -0.257812 20.484375 -1.484375 C 22.429688 -2.714844 23.863281 -4.457031 24.835938 -6.605469 L 20.738281 -6.605469 C 19.921875 -5.53125 18.949219 -4.710938 17.769531 -4.097656 C 16.59375 -3.480469 15.363281 -3.226562 14.082031 -3.226562 C 12.136719 -3.226562 10.394531 -3.839844 8.859375 -5.121094 C 7.324219 -6.351562 6.351562 -7.9375 6.042969 -9.882812 L 25.859375 -9.882812 Z M 22.070312 -12.957031 L 6.09375 -12.957031 C 6.300781 -13.878906 6.65625 -14.75 7.167969 -15.566406 C 8.808594 -18.230469 11.113281 -19.5625 14.082031 -19.5625 C 15.976562 -19.5625 17.667969 -18.949219 19.152344 -17.71875 C 20.6875 -16.4375 21.609375 -14.851562 22.070312 -12.957031 Z M 22.070312 -12.957031 "/></g></g></g><g fill="#000000" fill-opacity="1"><g transform="translate(232.450111, 204.374987)"><g><path d="M 1.023438 -19.203125 L 6.65625 -19.203125 L 6.65625 0 L 10.242188 0 L 10.242188 -19.203125 L 15.824219 -19.203125 L 15.824219 -22.53125 L 10.242188 -22.53125 L 10.242188 -31.289062 L 6.65625 -31.289062 L 6.65625 -22.53125 L 1.023438 -22.53125 Z M 1.023438 -19.203125 "/></g></g></g><g fill="#000000" fill-opacity="1"><g transform="translate(244.480534, 204.374987)"><g><path d="M 25.859375 -11.777344 C 25.859375 -14.851562 24.632812 -17.515625 22.277344 -19.816406 C 19.972656 -22.019531 17.207031 -23.148438 14.082031 -23.148438 C 10.804688 -23.148438 8.039062 -21.96875 5.734375 -19.664062 C 3.429688 -17.359375 2.304688 -14.59375 2.304688 -11.367188 C 2.304688 -8.089844 3.429688 -5.324219 5.734375 -3.074219 C 6.8125 -1.996094 8.039062 -1.179688 9.472656 -0.5625 C 10.90625 0.0507812 12.597656 0.359375 14.59375 0.359375 C 16.59375 0.359375 18.539062 -0.257812 20.484375 -1.484375 C 22.429688 -2.714844 23.863281 -4.457031 24.835938 -6.605469 L 20.738281 -6.605469 C 19.921875 -5.53125 18.949219 -4.710938 17.769531 -4.097656 C 16.59375 -3.480469 15.363281 -3.226562 14.082031 -3.226562 C 12.136719 -3.226562 10.394531 -3.839844 8.859375 -5.121094 C 7.324219 -6.351562 6.351562 -7.9375 6.042969 -9.882812 L 25.859375 -9.882812 Z M 22.070312 -12.957031 L 6.09375 -12.957031 C 6.300781 -13.878906 6.65625 -14.75 7.167969 -15.566406 C 8.808594 -18.230469 11.113281 -19.5625 14.082031 -19.5625 C 15.976562 -19.5625 17.667969 -18.949219 19.152344 -17.71875 C 20.6875 -16.4375 21.609375 -14.851562 22.070312 -12.957031 Z M 22.070312 -12.957031 "/></g></g></g><g fill="#000000" fill-opacity="1"><g transform="translate(267.569989, 204.374987)"><g><path d="M 24.886719 -14.441406 C 24.171875 -16.949219 22.789062 -19 20.792969 -20.585938 C 18.691406 -22.175781 16.386719 -22.992188 13.828125 -22.992188 C 10.601562 -22.992188 7.835938 -21.816406 5.632812 -19.511719 C 3.378906 -17.207031 2.304688 -14.441406 2.304688 -11.265625 C 2.304688 -8.039062 3.378906 -5.324219 5.632812 -2.96875 C 6.65625 -1.894531 7.835938 -1.023438 9.269531 -0.410156 C 10.652344 0.203125 12.085938 0.511719 13.519531 0.511719 C 14.953125 0.511719 16.234375 0.359375 17.359375 -0.0507812 C 20.945312 -1.332031 23.402344 -3.738281 24.683594 -7.375 L 20.636719 -7.375 C 19.921875 -6.09375 19 -5.070312 17.769531 -4.351562 C 16.539062 -3.585938 15.261719 -3.226562 13.828125 -3.226562 C 11.625 -3.226562 9.78125 -3.996094 8.246094 -5.582031 C 6.707031 -7.167969 5.992188 -9.0625 5.992188 -11.265625 C 5.992188 -13.367188 6.707031 -15.261719 8.246094 -16.847656 C 8.960938 -17.566406 9.78125 -18.179688 10.753906 -18.589844 C 11.675781 -19 12.855469 -19.253906 14.183594 -19.253906 C 15.515625 -19.253906 16.796875 -18.792969 18.128906 -17.921875 C 19.410156 -17 20.382812 -15.875 20.996094 -14.441406 Z M 24.886719 -14.441406 "/></g></g></g><g fill="#000000" fill-opacity="1"><g transform="translate(289.430669, 204.374987)"><g><path d="M 7.425781 0 L 7.425781 -9.421875 C 7.425781 -12.546875 7.9375 -14.902344 9.011719 -16.539062 C 9.628906 -17.460938 10.394531 -18.128906 11.367188 -18.640625 C 12.289062 -19.152344 13.570312 -19.410156 15.105469 -19.410156 C 16.644531 -19.410156 17.71875 -18.84375 18.382812 -17.820312 C 19.050781 -16.796875 19.410156 -15.515625 19.410156 -14.082031 L 19.410156 0 L 22.992188 0 L 22.992188 -14.082031 C 22.992188 -16.695312 22.277344 -18.792969 20.945312 -20.382812 C 20.226562 -21.199219 19.410156 -21.816406 18.4375 -22.277344 C 17.410156 -22.738281 16.132812 -22.992188 14.542969 -22.992188 C 12.90625 -22.992188 11.523438 -22.53125 10.292969 -21.714844 C 9.117188 -20.945312 8.140625 -19.921875 7.425781 -18.640625 L 7.425781 -38.40625 L 3.839844 -38.40625 L 3.839844 0 Z M 7.425781 0 "/></g></g></g><g clip-path="url(#22df47dc05)"><path fill="#000000" d="M 288.652344 193.554688 C 288.417969 193.320312 288.273438 192.996094 288.273438 192.636719 C 288.273438 192.277344 288.417969 191.957031 288.652344 191.71875 L 301.460938 178.765625 C 301.691406 178.53125 302.011719 178.386719 302.367188 178.386719 C 303.074219 178.386719 303.648438 178.96875 303.648438 179.683594 C 303.648438 180.039062 303.503906 180.367188 303.273438 180.601562 L 291.367188 192.636719 L 303.273438 204.675781 C 303.503906 204.910156 303.648438 205.234375 303.648438 205.59375 C 303.648438 206.308594 303.074219 206.890625 302.367188 206.890625 C 302.011719 206.890625 301.691406 206.742188 301.460938 206.507812 Z M 322.859375 178.386719 C 322.859375 178.386719 322.859375 178.386719 322.855469 178.386719 C 322.148438 178.386719 321.574219 178.96875 321.574219 179.683594 C 321.574219 180.042969 321.71875 180.367188 321.953125 180.601562 L 333.855469 192.636719 L 321.953125 204.675781 C 321.71875 204.910156 321.578125 205.234375 321.578125 205.59375 C 321.578125 206.308594 322.152344 206.890625 322.859375 206.890625 C 323.210938 206.890625 323.535156 206.742188 323.765625 206.507812 L 336.574219 193.554688 C 336.804688 193.320312 336.949219 192.996094 336.949219 192.636719 C 336.949219 192.277344 336.804688 191.957031 336.574219 191.71875 L 323.765625 178.765625 C 323.535156 178.53125 323.214844 178.386719 322.859375 178.386719 Z M 322.859375 178.386719 " fill-opacity="1" fill-rule="nonzero"/></g></svg>